Jump_normalized_Motion_pl17
version=1
nRows=19
nColumns=43
inDegrees=yes
endheader
time		pelvis_tilt		pelvis_list		pelvis_rotation		pelvis_tx		pelvis_ty		pelvis_tz		hip_flexion_r		hip_adduction_r		hip_rotation_r		knee_angle_r		ankle_angle_r		subtalar_angle_r		mtp_angle_r		hip_flexion_l		hip_adduction_l		hip_rotation_l		knee_angle_l		ankle_angle_l		subtalar_angle_l		mtp_angle_l		lumbar_extension		lumbar_bending		lumbar_rotation		neck_flexion		neck_lateral_bending		neck_rotation		arm_flex_r		arm_add_r		arm_rot_r		elbow_flex_r		pro_sup_r		wrist_flex_r		wrist_dev_r		hand_finger_flex_r		arm_flex_l		arm_add_l		arm_rot_l		elbow_flex_l		pro_sup_l		wrist_flex_l		wrist_dev_l		hand_finger_flex_l		
0.322500		5.661110		-11.131709		88.923607		0.058994		1.711148		1.922754		90.635495		5.034758		-5.407041		-141.651404		26.583176		2.171915		20.256312		93.512186		-10.238298		6.577246		-146.412446		22.172243		1.969569		23.300338		-57.882694		1.689743		5.757543		39.263591		-2.406339		2.888014		45.902404		-16.814911		0.267068		66.594157		100.389103		-5.670943		1.614911		29.435364		36.573557		-25.554848		-6.465598		74.670811		96.193132		-2.258456		3.451754		29.132237		
0.326263		5.650027		-11.199279		88.882044		0.058952		1.710802		1.921186		90.579545		5.076016		-5.355870		-141.793468		26.443924		2.407525		20.278294		93.477626		-10.388000		6.522440		-146.528498		22.031041		1.885143		23.321653		-57.694401		1.666465		5.798263		39.303183		-2.435840		2.868664		46.751954		-16.781032		0.513875		66.838501		100.561444		-5.786798		1.790258		29.331935		37.656875		-25.578967		-6.094461		75.003095		95.996006		-2.284021		3.491758		29.207471		
0.330025		5.642282		-11.259864		88.855762		0.058950		1.710830		1.919635		90.465365		5.097266		-5.323688		-141.844089		26.339117		2.645556		20.336586		93.388239		-10.506997		6.469631		-146.571860		21.901516		1.774347		23.347061		-57.543238		1.638533		5.848173		39.345999		-2.446423		2.839220		47.622802		-16.775090		0.780927		67.118526		100.694728		-5.913483		2.013649		29.221643		38.791957		-25.589048		-5.676303		75.357938		95.771374		-2.309627		3.540248		29.281604		
0.333788		5.656373		-11.341178		88.874987		0.058936		1.710890		1.918018		90.356371		5.100644		-5.312810		-141.881270		26.324952		2.758983		20.395335		93.307373		-10.598630		6.448358		-146.601665		21.829342		1.696564		23.368394		-57.367520		1.654325		5.866474		39.309469		-2.449051		2.811851		48.445823		-16.689803		0.915387		67.447478		100.721582		-5.999327		2.148518		29.138607		39.849721		-25.576377		-5.377058		75.810489		95.564735		-2.357563		3.535865		29.321794		
0.337551		5.669969		-11.419768		88.896385		0.058907		1.710821		1.916318		90.252844		5.103905		-5.300828		-141.960002		26.321788		2.835241		20.444705		93.247731		-10.680639		6.449155		-146.680850		21.773651		1.636364		23.386428		-57.171057		1.675037		5.868507		39.257591		-2.455237		2.792009		49.258175		-16.583256		1.018728		67.781930		100.727426		-6.063131		2.239876		29.070862		40.880681		-25.559385		-5.129163		76.276947		95.377618		-2.409852		3.513318		29.346521		
0.341313		5.651831		-11.395207		88.931997		0.058904		1.711525		1.914682		89.961906		5.102261		-5.233102		-141.902846		26.427313		2.909337		20.601817		92.976019		-10.749037		6.378433		-146.633634		21.649967		1.530262		23.458894		-57.142544		1.650538		5.908281		39.259369		-2.403530		2.697741		50.128620		-16.613598		1.218217		68.207500		100.605560		-6.222227		2.610797		28.903740		42.165449		-25.827138		-4.206204		76.702364		94.594618		-2.788402		3.644142		29.373060		
0.345076		5.642751		-11.594292		88.937036		0.058846		1.711679		1.913106		89.940128		5.111007		-5.189681		-141.886299		26.548435		2.846878		20.634884		93.004361		-10.821081		6.338264		-146.632821		21.633400		1.575911		23.485750		-56.838899		1.659033		5.881547		39.331618		-2.430372		2.704858		51.076450		-16.459849		1.384763		68.361033		100.580324		-6.244123		2.622823		28.871830		43.267773		-25.903278		-3.780396		77.122846		94.338422		-2.943144		3.639088		29.353526		
0.348838		5.607617		-11.760895		88.934884		0.058772		1.712043		1.911504		89.874140		5.126913		-5.107307		-141.831428		26.699168		2.747418		20.643878		92.938704		-10.911376		6.263572		-146.595235		21.620298		1.654111		23.516197		-56.576592		1.643890		5.837446		39.263920		-2.449282		2.726690		51.967621		-16.346302		1.584623		68.649249		100.566341		-6.321343		2.576217		28.854918		44.368044		-26.031319		-3.280631		77.625188		93.974117		-3.168459		3.625156		29.305746		
0.352601		5.549971		-11.956055		88.918528		0.058713		1.712451		1.909911		89.823390		5.154133		-5.002237		-141.776742		26.907716		2.590751		20.622790		92.879941		-11.035454		6.138853		-146.543471		21.640069		1.749364		23.538620		-56.278366		1.617589		5.789999		39.290407		-2.506734		2.761087		52.922354		-16.256445		1.876718		68.858569		100.627989		-6.453280		2.523707		28.838639		45.546706		-26.140822		-2.745417		78.019401		93.680177		-3.354908		3.641290		29.235208		
0.356364		5.357040		-12.069486		88.850803		0.058709		1.713238		1.908216		89.688471		5.201365		-4.781932		-141.697694		26.977413		2.384221		20.428408		92.585678		-11.198740		5.845429		-146.434715		21.750528		1.863549		23.593557		-56.076644		1.449675		5.685297		39.168002		-2.502382		2.696728		53.765823		-16.215922		2.185869		69.258148		100.630211		-7.091489		2.437058		28.855029		46.794364		-26.291872		-1.981256		78.457577		92.741904		-4.004593		3.696498		29.008341		
0.360126		5.229204		-12.251460		88.818827		0.058655		1.713952		1.906487		89.597096		5.241006		-4.625744		-141.615721		27.075422		2.229664		20.264183		92.402740		-11.347255		5.606281		-146.324365		21.821173		1.936404		23.639662		-55.795315		1.371024		5.602609		39.109838		-2.547155		2.675673		54.661477		-16.144942		2.510774		69.592355		100.622018		-7.555428		2.395343		28.909198		48.014567		-26.374228		-1.353690		78.849940		92.021073		-4.489885		3.749168		28.844575		
0.363889		5.207503		-12.506211		88.846504		0.058483		1.714578		1.904740		89.546395		5.246396		-4.600911		-141.526013		27.180237		2.123398		20.201204		92.367602		-11.414379		5.497435		-146.228298		21.819227		1.945322		23.655552		-55.429898		1.421179		5.558999		39.078659		-2.647206		2.745411		55.623477		-16.067863		2.835371		69.869039		100.645688		-7.634330		2.425062		28.966997		49.189779		-26.311467		-1.026496		79.216084		91.903013		-4.513010		3.762013		28.825271		
0.367652		5.124879		-12.707216		88.893149		0.058258		1.715440		1.902974		89.419655		5.207421		-4.543099		-141.442047		27.209802		1.932361		20.078269		92.258788		-11.393838		5.325287		-146.110839		21.755896		1.930181		23.678663		-55.127238		1.433237		5.492664		39.056339		-2.698812		2.762185		56.598964		-16.057860		3.167664		70.187964		100.592348		-7.885083		2.541266		29.035685		50.490204		-26.247144		-0.541662		79.500730		91.662627		-4.569169		3.795001		28.758420		
0.371414		4.970832		-12.863969		88.960888		0.058020		1.716657		1.901157		89.214778		5.160431		-4.410682		-141.334480		27.184274		1.677721		19.686498		92.069027		-11.305146		5.042117		-145.917175		21.546160		1.714177		23.758362		-54.895095		1.385158		5.408149		38.970212		-2.681078		2.604127		57.480332		-16.104289		3.456793		70.687641		100.054154		-8.711239		2.916996		29.404076		51.878964		-26.200947		0.174634		79.800745		90.787832		-4.931852		3.804171		28.513282		
0.375177		4.969062		-13.177272		89.073483		0.057767		1.717560		1.899480		89.179550		5.086098		-4.427465		-141.193266		27.255113		1.604748		19.616487		92.205632		-11.114963		5.034487		-145.784702		21.250379		1.721722		23.773087		-54.485323		1.491394		5.314464		38.948402		-2.718862		2.673452		58.495499		-15.969574		3.671444		70.928436		99.962483		-8.721142		2.954110		29.535719		53.113823		-26.178278		0.556410		80.163224		90.722935		-4.868156		3.793445		28.487478		
0.378939		4.960350		-13.499395		89.233496		0.057422		1.718678		1.897711		89.092008		4.964997		-4.451007		-141.034114		27.283322		1.476821		19.509428		92.329016		-10.831903		5.027387		-145.616404		20.807790		1.626912		23.791910		-54.090706		1.613649		5.200468		38.892267		-2.700806		2.676485		59.467636		-15.830982		3.793341		71.232547		99.746759		-8.798343		3.047714		29.690534		54.397997		-26.161733		1.003965		80.533307		90.529241		-4.829236		3.764791		28.433308		
0.382702		4.949726		-13.814704		89.375153		0.057225		1.719851		1.895960		89.024960		4.861660		-4.468224		-140.869286		27.314787		1.361416		19.422051		92.466064		-10.571280		5.023672		-145.449400		20.376096		1.518633		23.806682		-53.698260		1.711597		5.099216		38.876141		-2.681871		2.674141		60.465541		-15.659667		3.925283		71.529378		99.538436		-8.847111		3.148263		29.797329		55.700815		-26.158848		1.481625		80.894198		90.336798		-4.781222		3.748144		28.393053		
0.386465		4.945018		-14.123524		89.452231		0.057196		1.721105		1.894083		88.946666		4.829632		-4.475206		-140.695194		27.329765		1.300588		19.375722		92.518622		-10.410108		5.031471		-145.277298		20.100118		1.458891		23.814335		-53.313894		1.758216		5.012421		38.824354		-2.675741		2.680891		61.437386		-15.466039		4.046056		71.855619		99.410810		-8.858544		3.198406		29.829192		56.956421		-26.114358		1.824386		81.300436		90.194676		-4.744137		3.719641		28.378959		
0.390227		4.898859		-14.411093		89.591088		0.057066		1.722630		1.892143		88.809779		4.736490		-4.435498		-140.487796		27.350121		1.166943		19.255283		92.457987		-10.197915		4.968097		-145.030667		19.610352		1.278361		23.841979		-52.964076		1.791842		4.894287		38.865695		-2.576894		2.649694		62.423646		-15.429219		4.307072		72.239177		99.087512		-8.908970		3.441048		29.901878		58.438827		-26.250856		2.618957		81.592702		89.755637		-4.755519		3.776508		28.348075		
